<?xml version="1.0" encoding="iso-8859-1"?>
<!-- Uploaded to: SVG Repo, www.svgrepo.com, Generator: SVG Repo Mixer Tools -->
<svg version="1.1" id="Layer_1" xmlns="http://www.w3.org/2000/svg" xmlns:xlink="http://www.w3.org/1999/xlink" 
	 viewBox="0 0 512 512" xml:space="preserve">
<g>
	<rect x="241.692" y="214.846" style="fill:#FF8600;" width="30.444" height="52.656"/>
	<rect x="182.653" y="201.534" style="fill:#FF8600;" width="30.444" height="56.198"/>
	<rect x="298.503" y="201.534" style="fill:#FF8600;" width="30.444" height="62.007"/>
</g>
<g>
	<rect x="46.402" y="311.625" style="fill:#797882;" width="83.211" height="30.444"/>
	<rect x="46.402" y="355.068" style="fill:#797882;" width="83.211" height="30.444"/>
	<rect x="46.402" y="397.398" style="fill:#797882;" width="83.211" height="30.444"/>
</g>
<g>
	<rect x="87.077" y="311.625" style="fill:#3E3E42;" width="42.541" height="30.444"/>
	<rect x="87.077" y="355.068" style="fill:#3E3E42;" width="42.541" height="30.444"/>
	<rect x="87.077" y="397.398" style="fill:#3E3E42;" width="42.541" height="30.444"/>
</g>
<path style="fill:#F7DC4D;" d="M256.927,282.063c-0.004,0-0.002,0-0.007,0c-40.64,0-80.596-7.066-118.752-21
	c-6.006-2.193-10.001-7.906-10.001-14.298v-59.482c0-5.169,2.622-9.984,6.964-12.788c4.342-2.804,9.81-3.213,14.521-1.086
	c33.928,15.317,70.005,23.084,107.23,23.083c36.842-0.001,72.583-7.614,106.228-22.626c4.711-2.101,10.161-1.675,14.489,1.132
	c4.325,2.807,6.936,7.613,6.936,12.769v59.41c0,6.414-4.019,12.14-10.052,14.317C336.684,275.142,297.127,282.063,256.927,282.063z
	 M158.611,235.93c31.757,10.413,64.778,15.688,98.309,15.688c0.002,0,0.004,0,0.007,0c33.12,0,65.752-5.149,97.165-15.318v-26.057
	c-31.196,11.086-63.796,16.691-97.209,16.692c-33.805,0-66.764-5.735-98.273-17.074V235.93z"/>
<rect x="33.619" y="278.808" style="fill:#797882;" width="25.553" height="167.837"/>
<path style="fill:#3E3E42;" d="M58.088,459.422H34.716c-7.056,0-12.777-5.72-12.777-12.776s5.721-12.776,12.777-12.776h23.373
	c7.056,0,12.777,5.72,12.777,12.776S65.144,459.422,58.088,459.422z"/>
<g>
	<rect x="116.831" y="278.808" style="fill:#2D2E30;" width="25.553" height="167.837"/>
	<path style="fill:#2D2E30;" d="M141.298,459.422h-23.374c-7.056,0-12.777-5.72-12.777-12.776s5.721-12.776,12.777-12.776h23.374
		c7.056,0,12.777,5.72,12.777,12.776S148.354,459.422,141.298,459.422z"/>
</g>
<path style="fill:#FF355D;" d="M11.81,160.761v126.764c0,6.152,4.987,11.139,11.139,11.139h128.246
	c6.152,0,11.139-4.987,11.139-11.139V160.761H11.81z M87.072,267.506c-20.912,0-37.865-16.953-37.865-37.865
	c0-20.912,16.953-37.865,37.865-37.865s37.865,16.953,37.865,37.865C124.937,250.554,107.984,267.506,87.072,267.506z"/>
<path style="fill:#E61F00;" d="M11.81,160.761v126.764c0,6.152,4.987,11.139,11.139,11.139h128.246
	c6.152,0,11.139-4.987,11.139-11.139V160.761H11.81z M87.072,267.506c-20.912,0-37.865-16.953-37.865-37.865
	c0-20.912,16.953-37.865,37.865-37.865s37.865,16.953,37.865,37.865C124.937,250.554,107.984,267.506,87.072,267.506z"/>
<rect x="371.488" y="279.788" style="fill:#797882;" width="25.553" height="166.857"/>
<path style="fill:#3E3E42;" d="M395.946,459.422h-23.373c-7.056,0-12.777-5.72-12.777-12.776s5.721-12.776,12.777-12.776h23.373
	c7.056,0,12.777,5.72,12.777,12.776S403.002,459.422,395.946,459.422z"/>
<g>
	<rect x="454.688" y="279.788" style="fill:#2D2E30;" width="25.553" height="166.857"/>
	<path style="fill:#2D2E30;" d="M479.155,459.422h-23.373c-7.056,0-12.777-5.72-12.777-12.776s5.721-12.776,12.777-12.776h23.373
		c7.056,0,12.777,5.72,12.777,12.776S486.211,459.422,479.155,459.422z"/>
</g>
<path style="fill:#E61F00;" d="M349.667,160.761v126.764c0,6.152,4.987,11.139,11.139,11.139h128.246
	c6.152,0,11.139-4.987,11.139-11.139V160.761H349.667z M424.929,267.506c-20.912,0-37.865-16.953-37.865-37.865
	c0-20.912,16.953-37.865,37.865-37.865s37.865,16.953,37.865,37.865C462.794,250.554,445.842,267.506,424.929,267.506z"/>
<path style="fill:#9D2217;" d="M87.072,160.761v31.015l0,0c20.912,0,37.865,16.953,37.865,37.865s-16.953,37.865-37.865,37.865l0,0
	v31.158h64.123c6.152,0,11.139-4.987,11.139-11.139V160.761H87.072z"/>
<path style="fill:#F7DC4D;" d="M9.35,167.675c-3.6,0-6.881-2.067-8.435-5.316s-1.104-7.099,1.156-9.902L79.793,56.06
	c1.775-2.201,4.45-3.481,7.278-3.481c2.827,0,5.504,1.28,7.278,3.481l77.722,96.398c2.26,2.803,2.709,6.655,1.156,9.902
	c-1.554,3.248-4.833,5.316-8.435,5.316L9.35,167.675L9.35,167.675z"/>
<path style="fill:#FF8600;" d="M172.072,152.458L94.35,56.06c-1.776-2.201-4.45-3.481-7.278-3.481l0,0v115.096h77.722
	c3.6,0,6.881-2.067,8.435-5.316C174.782,159.111,174.332,155.26,172.072,152.458z"/>
<g>
	<rect x="11.767" y="167.671" style="fill:#9D2217;" width="150.571" height="13.984"/>
	<path style="fill:#9D2217;" d="M424.929,160.761v31.015c20.912,0,37.865,16.953,37.865,37.865s-16.953,37.865-37.865,37.865v31.158
		h64.123c6.152,0,11.139-4.987,11.139-11.139V160.761H424.929z"/>
</g>
<path style="fill:#F7DC4D;" d="M347.207,167.675c-3.6,0-6.881-2.067-8.435-5.316s-1.104-7.099,1.156-9.902L417.65,56.06
	c1.775-2.201,4.45-3.481,7.278-3.481c2.828,0,5.504,1.28,7.278,3.481l77.722,96.398c2.26,2.803,2.709,6.655,1.156,9.902
	c-1.554,3.248-4.835,5.316-8.435,5.316L347.207,167.675L347.207,167.675z"/>
<path style="fill:#FF8600;" d="M509.929,152.458L432.207,56.06c-1.774-2.201-4.45-3.481-7.278-3.481v115.096h77.722
	c3.6,0,6.881-2.067,8.435-5.316C512.639,159.111,512.189,155.26,509.929,152.458z"/>
<rect x="349.643" y="167.671" style="fill:#9D2217;" width="150.571" height="13.984"/>
</svg>